<mxfile host="app.diagrams.net" modified="2024-03-05T06:39:26.752Z" agent="Mozilla/5.0 (Macintosh; Intel Mac OS X 10_15_7) AppleWebKit/537.36 (KHTML, like Gecko) Chrome/122.0.0.0 Safari/537.36" version="24.0.1" etag="iiTDx-adhonMSAF-5uQJ" type="github">
  <diagram name="第 1 页" id="MNywwxt7ipv-9OJ9WlIs">
    <mxGraphModel>
      <root>
        <mxCell id="0" />
        <mxCell id="1" parent="0" />
      </root>
    </mxGraphModel>
  </diagram>
</mxfile>
